<svg width="64" height="64" viewBox="0 0 64 64" fill="none" xmlns="http://www.w3.org/2000/svg">
<path d="M24.187 10.4004C26.3642 10.4004 28.3984 9.02197 29.1216 6.81982L25.3789 5.51221L32.4072 5.77148C32.4228 5.77197 32.4385 5.77197 32.4541 5.77197C33.123 5.77197 33.6772 5.24219 33.7021 4.56836C33.7275 3.87891 33.189 3.29883 32.499 3.27393L28.9585 3.14307C28.1167 1.18701 26.2036 0 24.1831 0C20.5224 0 18.0024 3.7041 19.3511 7.11279C20.1592 9.15479 22.1167 10.4004 24.187 10.4004Z" fill="#ECAC5D"/>
<path d="M16.627 46.2007C11.7119 46.2007 7.72705 50.1851 7.72705 55.1001C7.72705 60.0156 11.7119 64 16.627 64C21.542 64 25.5269 60.0156 25.5269 55.1001C25.5264 50.1851 21.542 46.2007 16.627 46.2007ZM16.627 58.04C15.0034 58.04 13.687 56.7236 13.687 55.1001C13.687 53.4766 15.0034 52.1606 16.627 52.1606C18.2505 52.1606 19.5669 53.4766 19.5669 55.1001C19.5664 56.7236 18.2505 58.04 16.627 58.04Z" fill="#ECAC5D"/>
<path d="M46.9565 46.2007C42.041 46.2007 38.0566 50.1851 38.0566 55.1001C38.0566 60.0156 42.041 64 46.9565 64C51.8716 64 55.856 60.0156 55.856 55.1001C55.856 50.1851 51.8716 46.2007 46.9565 46.2007V46.2007ZM46.9565 58.04C45.333 58.04 44.0166 56.7236 44.0166 55.1001C44.0166 53.4766 45.333 52.1606 46.9565 52.1606C48.5801 52.1606 49.896 53.4766 49.896 55.1001C49.896 56.7236 48.5801 58.04 46.9565 58.04Z" fill="#ECAC5D"/>
<path d="M53.8554 39.6465C54.479 31.4521 46.9565 28.1016 46.9565 28.1016L45.1484 24.4873L44.5591 22.1377H46.9018C48.0678 22.1377 49.0581 21.1836 49.0361 20.0176C49.0151 18.8867 48.0918 17.9766 46.9565 17.9766H41.893C41.6601 17.9766 41.4321 18.0166 41.2173 18.0908C41.6513 17.5073 41.8305 16.7412 41.6406 15.981C41.3042 14.6353 39.9409 13.8169 38.5952 14.1538L29.7856 16.2822V15.9106C29.7856 14.0068 28.2422 12.4634 26.3384 12.4634H20.0259C18.122 12.4634 16.5781 14.0063 16.5781 15.9106V33.5103H13.5674C14.4243 33.5103 15.1191 32.8154 15.1191 31.9585V17.2871C15.1191 16.4297 14.4243 15.7349 13.5674 15.7349H2.20359C1.34617 15.7349 0.651341 16.4297 0.651341 17.2871V31.9585C0.651341 32.8154 1.34617 33.5103 2.20359 33.5103H6.21824C5.5737 33.5103 5.05076 34.0332 5.05076 34.6777V39.833C5.05076 40.4775 5.5737 41 6.21824 41H7.67331C3.70505 43.5249 0.949681 47.6191 0.159154 52.3032C-0.0898695 53.7778 1.06247 55.1182 2.55808 55.1182C3.74753 55.1182 4.7529 54.2554 4.95505 53.083C5.91452 47.5117 10.7822 43.2563 16.6269 43.2563C23.1631 43.2563 28.4819 48.5796 28.4707 55.1182H35.1128C35.1098 53.2471 35.5468 51.3564 36.4726 49.5991H34.3789C34.8222 49.3003 35.1924 48.8813 35.4321 48.3604L41.2719 35.6699C42.1093 33.8501 40.9731 31.7271 38.9883 31.4209L29.7856 30.0005V25.7051C29.2666 25.5913 28.3857 25.7388 27.6972 24.9858L22.8286 19.646L28.6489 23.5771C28.98 23.8008 29.3593 23.9419 29.7563 23.9897C39.7807 25.1821 39.2363 25.1396 39.5215 25.1396C40.7754 25.1396 41.8589 24.2021 42.0117 22.9263C42.1762 21.5493 41.1938 20.2993 39.8164 20.1348L30.956 19.0752L25.6401 15.4844L30.5551 17.3154L39.9345 18.437C42.2529 18.7144 43.9907 20.8462 43.6953 23.1621C43.5078 24.6284 42.5854 25.8228 41.3437 26.4219L44.9341 40.7427C45.1665 41.6699 45.9946 42.3354 46.9507 42.335C53.976 42.332 59.6938 48.04 59.706 55.0615V55.1006C59.706 56.2495 60.6372 57.1812 61.7861 57.1812C62.9194 57.1812 63.8408 56.2754 63.8662 55.1484C63.8667 55.127 63.8667 55.104 63.8667 55.0845C63.8667 48.2158 59.7505 42.291 53.8554 39.6465V39.6465ZM30.8091 41C31.4536 41 31.976 40.4775 31.976 39.833V36.4526L34.1089 36.7817L30.1738 45.332C28.9326 43.6138 27.3725 42.1406 25.5805 41H30.8091Z" fill="#ECAC5D"/>
</svg>
