<svg width="63" height="67" viewBox="0 0 63 67" fill="none" xmlns="http://www.w3.org/2000/svg">
<g clip-path="url(#clip0_75_101)">
<path d="M23.4904 10.8451C25.605 10.8451 27.5806 9.40778 28.2829 7.11146L24.648 5.74793L31.4739 6.01829C31.4891 6.0188 31.5042 6.0188 31.5194 6.0188C32.1691 6.0188 32.7073 5.46636 32.7315 4.76372C32.7562 4.04478 32.2331 3.4399 31.563 3.41393L28.1245 3.27747C27.3069 1.23777 25.4489 0 23.4866 0C19.9314 0 17.484 3.8625 18.7938 7.41696C19.5786 9.54627 21.4797 10.8451 23.4904 10.8451Z" fill="#911F27"/>
<path d="M16.1481 48.1763C11.3746 48.1763 7.50452 52.331 7.50452 57.4563C7.50452 62.582 11.3746 66.7367 16.1481 66.7367C20.9216 66.7367 24.7917 62.582 24.7917 57.4563C24.7912 52.331 20.9216 48.1763 16.1481 48.1763ZM16.1481 60.5219C14.5713 60.5219 13.2928 59.1492 13.2928 57.4563C13.2928 55.7633 14.5713 54.3911 16.1481 54.3911C17.7249 54.3911 19.0034 55.7633 19.0034 57.4563C19.0029 59.1492 17.7249 60.5219 16.1481 60.5219Z" fill="#911F27"/>
<path d="M45.6042 48.1763C40.8303 48.1763 36.9606 52.331 36.9606 57.4563C36.9606 62.582 40.8303 66.7367 45.6042 66.7367C50.3777 66.7367 54.2473 62.582 54.2473 57.4563C54.2473 52.331 50.3777 48.1763 45.6042 48.1763ZM45.6042 60.5219C44.0274 60.5219 42.749 59.1492 42.749 57.4563C42.749 55.7633 44.0274 54.3911 45.6042 54.3911C47.181 54.3911 48.459 55.7633 48.459 57.4563C48.459 59.1492 47.181 60.5219 45.6042 60.5219Z" fill="#911F27"/>
<path d="M52.3045 41.3419C52.9101 32.7971 45.6043 29.3033 45.6043 29.3033L43.8482 25.5344L43.2759 23.0844H45.5512C46.6836 23.0844 47.6453 22.0895 47.624 20.8736C47.6036 19.6944 46.7068 18.7453 45.6043 18.7453H40.6866C40.4604 18.7453 40.239 18.787 40.0303 18.8644C40.4519 18.256 40.6259 17.4571 40.4415 16.6643C40.1147 15.2611 38.7907 14.4077 37.4837 14.7591L28.9279 16.9785V16.591C28.9279 14.6058 27.4289 12.9963 25.5799 12.9963H19.4492C17.6002 12.9963 16.1007 14.6053 16.1007 16.591V34.9432H13.1767C14.0089 34.9432 14.6838 34.2187 14.6838 33.3251V18.0263C14.6838 17.1323 14.0089 16.4077 13.1767 16.4077H2.14019C1.30746 16.4077 0.632649 17.1323 0.632649 18.0263V33.3251C0.632649 34.2187 1.30746 34.9432 2.14019 34.9432H6.03922C5.41325 34.9432 4.90536 35.4886 4.90536 36.1606V41.5364C4.90536 42.2085 5.41325 42.7533 6.03922 42.7533H7.45239C3.59842 45.3862 0.922396 49.6555 0.154636 54.5399C-0.0872162 56.0775 1.03194 57.4752 2.48447 57.4752C3.63967 57.4752 4.61609 56.5755 4.81242 55.353C5.74426 49.5435 10.4717 45.1061 16.1482 45.1061C22.496 45.1061 27.6617 50.657 27.6508 57.4752H34.1016C34.0988 55.5241 34.5232 53.5526 35.4223 51.7201H33.3889C33.8195 51.4085 34.1789 50.9717 34.4118 50.4284L40.0834 37.1953C40.8967 35.2976 39.7932 33.0838 37.8655 32.7645L28.9279 31.2834V26.8043C28.4238 26.6857 27.5683 26.8394 26.8997 26.0543L22.1712 20.4861L27.8239 24.5854C28.1454 24.8186 28.5139 24.9657 28.8994 25.0156C38.6352 26.259 38.1064 26.2147 38.3833 26.2147C39.6011 26.2147 40.6534 25.2371 40.8019 23.9067C40.9617 22.4708 40.0075 21.1674 38.6698 20.9958L30.0646 19.8909L24.9018 16.1465L29.6753 18.0559L38.7845 19.2254C41.0361 19.5146 42.7239 21.7376 42.437 24.1526C42.2549 25.6816 41.3591 26.927 40.1531 27.5517L43.6401 42.4849C43.8658 43.4518 44.6701 44.1458 45.5986 44.1453C52.4216 44.1423 57.9748 50.0944 57.9866 57.4161V57.4568C57.9866 58.6549 58.8909 59.6264 60.0068 59.6264C61.1074 59.6264 62.0023 58.6819 62.027 57.5067C62.0274 57.4843 62.0274 57.4604 62.0274 57.44C62.0274 50.2777 58.0298 44.0995 52.3045 41.3419ZM29.9218 42.7533C30.5478 42.7533 31.0552 42.2085 31.0552 41.5364V38.0115L33.1266 38.3546L29.3049 47.2706C28.0994 45.4788 26.5843 43.9427 24.8439 42.7533H29.9218Z" fill="#911F27"/>
</g>
<defs>
<clipPath id="clip0_75_101">
<rect width="62.1569" height="66.7368" fill="white"/>
</clipPath>
</defs>
</svg>
