<svg width="66" height="61" viewBox="0 0 66 61" fill="none" xmlns="http://www.w3.org/2000/svg">
<path d="M33.0378 49.0366C39.2958 49.0366 44.3871 44.331 44.3871 38.5466C44.3871 32.7627 39.2958 28.0571 33.0378 28.0571C26.7793 28.0571 21.688 32.7627 21.688 38.5466C21.688 44.331 26.7793 49.0366 33.0378 49.0366ZM26.3518 36.8959C27.098 36.2057 28.308 36.2057 29.0548 36.8959L31.5493 39.2014L37.0208 34.1445C37.7675 33.4548 38.9775 33.4548 39.7238 34.1445C40.47 34.8342 40.47 35.9525 39.7238 36.6427L32.9008 42.9488C32.5423 43.2801 32.0564 43.4658 31.5493 43.4658C31.0423 43.4658 30.5563 43.2801 30.1978 42.9488L26.3518 39.3936C25.6055 38.7039 25.6055 37.5856 26.3518 36.8959Z" fill="#911F27"/>
<path d="M1.41797 55.2872C1.41797 58.437 4.19096 60.9999 7.59892 60.9999H58.4756C61.8836 60.9999 64.6566 58.437 64.6566 55.2872V19.626H1.41797V55.2872ZM33.0378 24.5242C41.4036 24.5242 48.2094 30.8145 48.2094 38.5465C48.2094 46.2786 41.4036 52.5693 33.0378 52.5693C24.672 52.5693 17.8656 46.2786 17.8656 38.5465C17.8656 30.8145 24.672 24.5242 33.0378 24.5242Z" fill="#911F27"/>
<path d="M64.656 16.0933V10.6514C64.656 7.50117 61.8835 4.93872 58.4751 4.93872H54.9906V8.11131C54.9906 9.0877 54.1341 9.87747 53.0791 9.87747C52.0232 9.87747 51.1682 9.0877 51.1682 8.11131V4.93872H47.4118V8.11131C47.4118 9.0877 46.5573 9.87747 45.5009 9.87747C44.446 9.87747 43.5894 9.0877 43.5894 8.11131V4.93872H22.4861V8.11131C22.4861 9.0877 21.6301 9.87747 20.5751 9.87747C19.5187 9.87747 18.6637 9.0877 18.6637 8.11131V4.93872H14.9078V8.11131C14.9078 9.0877 14.0513 9.87747 12.9964 9.87747C11.9414 9.87747 11.0854 9.0877 11.0854 8.11131V4.93872H7.59941C4.19095 4.93872 1.41846 7.50117 1.41846 10.6514V16.0933H64.656Z" fill="#911F27"/>
<path d="M54.9906 1.76617C54.9906 0.791168 54.1341 0 53.0791 0C52.0232 0 51.1682 0.791168 51.1682 1.76617V4.93875H54.9906V1.76617Z" fill="#911F27"/>
<path d="M47.4118 1.76617C47.4118 0.791168 46.5573 0 45.5009 0C44.4459 0 43.5894 0.791168 43.5894 1.76617V4.93875H47.4118V1.76617Z" fill="#911F27"/>
<path d="M22.4861 1.76617C22.4861 0.791168 21.63 0 20.5751 0C19.5187 0 18.6637 0.791168 18.6637 1.76617V4.93875H22.4861V1.76617Z" fill="#911F27"/>
<path d="M14.9078 1.76617C14.9078 0.791168 14.0513 0 12.9964 0C11.9415 0 11.0854 0.791168 11.0854 1.76617V4.93875H14.9078V1.76617Z" fill="#911F27"/>
</svg>
