<svg width="73" height="59" viewBox="0 0 73 59" fill="none" xmlns="http://www.w3.org/2000/svg">
<path d="M0.036377 43.2491C0.036377 42.92 0.303102 42.6533 0.632124 42.6533H72.0068C72.3358 42.6533 72.6025 42.92 72.6025 43.2491C72.6025 48.7328 68.1571 53.1782 62.6734 53.1782H9.96549C4.48179 53.1782 0.036377 48.7328 0.036377 43.2491Z" fill="#911F27"/>
<path d="M36.3194 0L61.505 43.6228H11.1338L36.3194 0Z" fill="#FF84A1"/>
<path d="M4.29629 38.3335C4.58908 37.6216 5.54278 37.4936 6.01294 38.1031L9.18604 42.2168C9.65621 42.8264 9.29022 43.7163 8.52726 43.8187L3.37814 44.5098C2.61518 44.6122 2.02747 43.8503 2.32026 43.1384L4.29629 38.3335Z" fill="#911F27"/>
<path d="M10.9305 38.0756C11.2939 37.397 12.2557 37.3662 12.6617 38.0202L15.4228 42.4679C15.8288 43.1219 15.3746 43.9702 14.6052 43.9948L9.37282 44.1622C8.60342 44.1868 8.0959 43.3693 8.45929 42.6906L10.9305 38.0756Z" fill="#911F27"/>
<path d="M17.5492 38.0991C17.9375 37.4344 18.8998 37.4394 19.2812 38.108L21.8755 42.655C22.257 43.3236 21.7716 44.1545 21.0018 44.1506L15.7669 44.1238C14.9971 44.1198 14.5202 43.284 14.9085 42.6194L17.5492 38.0991Z" fill="#911F27"/>
<path d="M24.1782 38.0813C24.5665 37.4166 25.5288 37.4216 25.9103 38.0902L28.5045 42.6372C28.886 43.3058 28.4006 44.1367 27.6309 44.1327L22.3959 44.106C21.6261 44.102 21.1492 43.2662 21.5375 42.6015L24.1782 38.0813Z" fill="#911F27"/>
<path d="M30.8256 38.0813C31.2139 37.4166 32.1761 37.4216 32.5576 38.0902L35.1519 42.6372C35.5334 43.3058 35.048 44.1367 34.2782 44.1327L29.0432 44.106C28.2734 44.102 27.7966 43.2662 28.1849 42.6015L30.8256 38.0813Z" fill="#911F27"/>
<path d="M38.0267 38.0813C38.4151 37.4166 39.3773 37.4216 39.7588 38.0902L42.3531 42.6372C42.7345 43.3058 42.2492 44.1367 41.4794 44.1327L36.2444 44.106C35.4746 44.102 34.9977 43.2662 35.3861 42.6015L38.0267 38.0813Z" fill="#911F27"/>
<path d="M45.2279 38.0813C45.6162 37.4166 46.5785 37.4216 46.9599 38.0902L49.5542 42.6372C49.9357 43.3058 49.4503 44.1367 48.6805 44.1327L43.4456 44.106C42.6758 44.102 42.1989 43.2662 42.5872 42.6015L45.2279 38.0813Z" fill="#911F27"/>
<path d="M51.8751 38.0813C52.2634 37.4166 53.2257 37.4216 53.6072 38.0902L56.2014 42.6372C56.5829 43.3058 56.0975 44.1367 55.3278 44.1327L50.0928 44.106C49.323 44.102 48.8461 43.2662 49.2344 42.6015L51.8751 38.0813Z" fill="#911F27"/>
<path d="M59.0764 38.0813C59.4647 37.4166 60.427 37.4216 60.8085 38.0902L63.4027 42.6372C63.7842 43.3058 63.2988 44.1367 62.5291 44.1327L57.2941 44.106C56.5243 44.102 56.0474 43.2662 56.4357 42.6015L59.0764 38.0813Z" fill="#911F27"/>
<path d="M66.2566 38.1509C66.6312 37.4783 67.5933 37.4635 67.9885 38.1241L70.6758 42.6168C71.071 43.2774 70.6028 44.1181 69.8331 44.13L64.5986 44.2109C63.8289 44.2228 63.335 43.397 63.7095 42.7245L66.2566 38.1509Z" fill="#911F27"/>
<path d="M36.3194 0L40.8768 7.89364H31.762L36.3194 0Z" fill="#911F27"/>
</svg>
