<svg width="70" height="56" viewBox="0 0 70 56" fill="none" xmlns="http://www.w3.org/2000/svg">
<g clip-path="url(#clip0_73_21)">
<path d="M37.0547 0C32.5305 0 28.7148 3.05254 28.7148 6.67186C28.7148 10.2912 32.5305 13.3437 37.0547 13.3437C41.5788 13.3437 45.2578 10.2912 45.2578 6.67186C45.2578 3.05254 41.5788 0 37.0547 0Z" fill="#911F27"/>
<path d="M46.159 13.3438C43.9052 15.343 40.6772 16.625 37.0547 16.625C33.4322 16.625 30.0674 15.343 27.8136 13.3438C25.8459 15.0893 24.6133 17.376 24.6133 19.9062V21.5469C24.6133 22.4537 25.5305 23.1875 26.6641 23.1875H47.3086C48.4421 23.1875 49.3593 22.4537 49.3593 21.5469V19.9062C49.3593 17.376 48.1267 15.0893 46.159 13.3438Z" fill="#911F27"/>
<path d="M19.8173 50.3566L9.36641 33.5944C8.35729 31.9757 5.90128 31.3157 3.87552 32.1186L1.14402 33.2011C0.126972 33.6046 -0.286875 34.5934 0.220761 35.4056L12.5254 55.0931C13.0314 55.905 14.2623 56.2281 15.2711 55.8301L17.9675 54.7614C20.0012 53.9555 20.8301 51.9814 19.8173 50.3566Z" fill="#911F27"/>
<path d="M68.3224 27.0921C66.6406 26.1077 64.3027 26.3046 62.9083 27.5187L51.6974 38.5436C50.9181 39.1999 49.4415 39.5936 48.6622 39.5936H39.1055C37.9569 39.5936 37.0547 38.8719 37.0547 37.953C37.0547 37.0342 37.9569 36.3124 39.1055 36.3124C41.8521 36.3124 44.893 36.3124 47.3086 36.3124C49.5644 36.3124 51.4101 34.8358 51.4101 33.0311C51.4101 31.2265 49.5644 29.7499 47.3086 29.7499C37.6773 29.7499 46.8642 29.7499 36.5625 29.7499C35.5404 29.7499 35.0307 29.2314 34.2246 28.667C31.0515 26.3827 26.3019 25.2822 21.4935 26.1738C18.8237 26.6688 17.0232 27.5317 15.1972 28.6886L15.1364 28.6492L12.1701 30.7376L23.8273 49.4374H27.2792H47.3086C51.164 49.4374 54.8556 47.9608 57.1524 45.4999L69.1835 31.7186C70.5371 30.2748 70.1679 28.175 68.3224 27.0921Z" fill="#911F27"/>
</g>
<defs>
<clipPath id="clip0_73_21">
<rect width="70" height="56" fill="white"/>
</clipPath>
</defs>
</svg>
